<?xml version="1.0" standalone="no"?>
<!DOCTYPE svg PUBLIC "-//W3C//DTD SVG 20010904//EN"
 "http://www.w3.org/TR/2001/REC-SVG-20010904/DTD/svg10.dtd">
<svg version="1.0" xmlns="http://www.w3.org/2000/svg"
 width="16.000000pt" height="16.000000pt" viewBox="0 0 16.000000 16.000000"
 preserveAspectRatio="xMidYMid meet">
<metadata>
Created by potrace 1.16, written by Peter Selinger 2001-2019
</metadata>
<g transform="translate(0.000000,16.000000) scale(0.100000,-0.100000)"
fill="#000000" stroke="none">
<path d="M52 125 c-25 -28 -32 -44 -32 -77 0 -38 2 -40 25 -36 13 3 22 1 19
-3 -3 -5 0 -9 6 -9 7 0 10 13 9 33 -4 38 6 57 29 57 16 -1 16 -1 0 -11 -12 -6
-18 -22 -18 -44 0 -29 4 -35 21 -35 16 0 20 5 16 20 -3 11 -1 20 4 20 5 0 9
27 9 60 0 59 -1 60 -28 60 -18 0 -37 -11 -60 -35z m48 11 c0 -3 -4 -8 -10 -11
-5 -3 -10 -1 -10 4 0 6 5 11 10 11 6 0 10 -2 10 -4z m-36 -87 c-3 -5 -10 -7
-15 -3 -5 3 -7 10 -3 15 3 5 10 7 15 3 5 -3 7 -10 3 -15z"/>
</g>
</svg>
